<svg width="500" height="300" viewBox="0 0 500 300" fill="none" xmlns="http://www.w3.org/2000/svg">
<rect width="500" height="300" rx="20" fill="#222222"/>
<path d="M196.162 125.996C199.234 125.996 201.879 126.401 204.098 127.212C206.317 128.023 208.407 129.239 210.37 130.86L205.25 137.068C202.562 134.892 199.618 133.804 196.418 133.804C193.389 133.804 190.935 135.084 189.058 137.644C187.223 140.204 186.306 144.065 186.306 149.228C186.306 154.391 187.223 158.231 189.058 160.748C190.893 163.223 193.41 164.46 196.61 164.46C198.573 164.46 200.258 164.119 201.666 163.436C203.074 162.753 204.589 161.772 206.21 160.492L210.946 166.572C207.021 170.583 202.05 172.588 196.034 172.588C191.981 172.588 188.397 171.692 185.282 169.9C182.21 168.108 179.799 165.463 178.05 161.964C176.301 158.423 175.426 154.177 175.426 149.228C175.426 144.407 176.322 140.247 178.114 136.748C179.906 133.249 182.381 130.583 185.538 128.748C188.695 126.913 192.237 125.996 196.162 125.996ZM247.977 158.508C247.977 161.281 247.252 163.735 245.801 165.868C244.35 168.001 242.26 169.665 239.529 170.86C236.841 172.012 233.641 172.588 229.929 172.588C222.59 172.588 216.745 170.455 212.393 166.188L217.705 160.3C221.076 163.287 225.065 164.78 229.673 164.78C231.892 164.78 233.662 164.311 234.985 163.372C236.35 162.391 237.033 161.047 237.033 159.34C237.033 157.719 236.457 156.46 235.305 155.564C234.196 154.625 232.105 153.687 229.033 152.748C223.828 151.169 220.137 149.313 217.961 147.18C215.785 145.047 214.697 142.295 214.697 138.924C214.697 136.279 215.422 133.975 216.873 132.012C218.366 130.049 220.372 128.556 222.889 127.532C225.449 126.508 228.286 125.996 231.401 125.996C237.929 125.996 243.22 127.916 247.273 131.756L242.345 137.452C240.852 136.215 239.23 135.297 237.481 134.7C235.774 134.06 234.004 133.74 232.169 133.74C230.121 133.74 228.5 134.124 227.305 134.892C226.153 135.617 225.577 136.684 225.577 138.092C225.577 139.031 225.833 139.82 226.345 140.46C226.9 141.1 227.796 141.697 229.033 142.252C230.27 142.807 232.126 143.468 234.601 144.236C239.124 145.601 242.473 147.372 244.649 149.548C246.868 151.681 247.977 154.668 247.977 158.508ZM266.448 145.324H281.808V152.62H266.448V163.948H284.944V171.5H255.952V127.148H284.944L283.856 134.636H266.448V145.324ZM324.727 158.508C324.727 161.281 324.002 163.735 322.551 165.868C321.1 168.001 319.01 169.665 316.279 170.86C313.591 172.012 310.391 172.588 306.679 172.588C299.34 172.588 293.495 170.455 289.143 166.188L294.455 160.3C297.826 163.287 301.815 164.78 306.423 164.78C308.642 164.78 310.412 164.311 311.735 163.372C313.1 162.391 313.783 161.047 313.783 159.34C313.783 157.719 313.207 156.46 312.055 155.564C310.946 154.625 308.855 153.687 305.783 152.748C300.578 151.169 296.887 149.313 294.711 147.18C292.535 145.047 291.447 142.295 291.447 138.924C291.447 136.279 292.172 133.975 293.623 132.012C295.116 130.049 297.122 128.556 299.639 127.532C302.199 126.508 305.036 125.996 308.151 125.996C314.679 125.996 319.97 127.916 324.023 131.756L319.095 137.452C317.602 136.215 315.98 135.297 314.231 134.7C312.524 134.06 310.754 133.74 308.919 133.74C306.871 133.74 305.25 134.124 304.055 134.892C302.903 135.617 302.327 136.684 302.327 138.092C302.327 139.031 302.583 139.82 303.095 140.46C303.65 141.1 304.546 141.697 305.783 142.252C307.02 142.807 308.876 143.468 311.351 144.236C315.874 145.601 319.223 147.372 321.399 149.548C323.618 151.681 324.727 154.668 324.727 158.508Z" fill="#DDDDDD"/>
</svg>
